<svg width="435" height="637" viewBox="0 0 435 637" fill="none" xmlns="http://www.w3.org/2000/svg">
<path d="M349 258.429L350 537.387L329.125 541.583V495.488L225.775 499.439V554.753L190 557.387V265.014C191.325 228.138 209.08 154.387 269.5 154.387C329.92 154.387 347.675 223.748 349 258.429Z" stroke="#1C1C1C" stroke-width="1.5"/>
<path d="M251 157.387L108.533 174.492C82.15 182.387 46.9375 215.86 46.9375 277.124C46.9375 281.045 46.9437 284.966 46.9555 288.887M190.32 557.387L157.341 553.439V502.124L75.5546 496.86V535.018L49.1718 529.755C49.7246 456.956 47.6524 384.178 47.0801 311.387" stroke="#1C1C1C" stroke-width="1.5"/>
<path d="M146.714 316.387L170 264.168L62.7941 260.387L35 310.337L146.714 316.387Z" stroke="#1C1C1C" stroke-width="1.5"/>
<path d="M63 311.887V322.41L170 326.387V263.387" stroke="#1C1C1C" stroke-width="1.5"/>
<circle cx="309.23" cy="40.6168" r="29.4451" transform="rotate(59.961 309.23 40.6168)" stroke="#1C1C1C" stroke-width="1.5"/>
<path d="M301.261 68.8707C302.267 60.9653 306.823 53.6042 314.254 49.307C321.684 45.0108 330.334 44.7334 337.687 47.8022" stroke="#1C1C1C" stroke-width="1.5"/>
<path d="M280.713 33.3374C288.067 36.4084 296.719 36.1319 304.151 31.8348C311.58 27.5385 316.136 20.1798 317.143 12.2765" stroke="#1C1C1C" stroke-width="1.5"/>
<circle cx="27.7463" cy="153.132" r="20.3074" transform="rotate(-60 27.7463 153.132)" stroke="#1C1C1C" stroke-width="1.5"/>
<path d="M47.373 148.163C42.3027 150.284 36.3353 150.097 31.2082 147.137C26.0822 144.178 22.9372 139.105 22.2383 133.655" stroke="#1C1C1C" stroke-width="1.5"/>
<path d="M33.2196 172.679C32.5217 167.227 29.3764 162.152 24.2492 159.192C19.1232 156.233 13.1574 156.046 8.08789 158.165" stroke="#1C1C1C" stroke-width="1.5"/>
<rect x="296" y="212.789" width="106.936" height="62.1387" transform="rotate(-22.1984 296 212.789)" fill="#F3F1ED" stroke="#1C1C1C" stroke-width="1.5"/>
<path d="M296.471 212.987L359.81 223.819L394.812 172.858" stroke="#1C1C1C" stroke-width="1.5"/>
<path d="M336.772 219.953L319.811 270.186" stroke="#1C1C1C" stroke-width="1.5"/>
<path d="M375.088 201.977L418.288 230.391" stroke="#1C1C1C" stroke-width="1.5"/>
<rect x="16.4863" y="398.387" width="75.9344" height="44.124" transform="rotate(15 16.4863 398.387)" fill="#F3F1ED" stroke="#1C1C1C" stroke-width="1.5"/>
<path d="M16.668 398.701L47.8436 432.02L89.5193 418.222" stroke="#1C1C1C" stroke-width="1.5"/>
<path d="M36.4718 419.942L5.31362 441.073" stroke="#1C1C1C" stroke-width="1.5"/>
<path d="M65.8613 426.224L78.0979 460.841" stroke="#1C1C1C" stroke-width="1.5"/>
<path d="M404 366.387L410.175 387.801L432 382.387L416.35 398.387L432 414.387L410.175 408.972L404 430.387L397.825 408.972L376 414.387L391.65 398.387L376 382.387L397.825 387.801L404 366.387Z" stroke="#1C1C1C" stroke-width="1.5"/>
<path d="M83.1185 555.333C83.9548 552.446 88.0452 552.446 88.8815 555.333L94.019 573.067C94.4671 574.614 96.0564 575.531 97.6197 575.145L115.717 570.676C118.653 569.951 120.696 573.534 118.576 575.691L105.709 588.784C104.562 589.951 104.562 591.822 105.709 592.99L118.576 606.082C120.696 608.239 118.653 611.823 115.717 611.098L97.6197 606.629C96.0564 606.243 94.4671 607.16 94.019 608.707L88.8815 626.44C88.0452 629.327 83.9548 629.327 83.1185 626.44L77.981 608.707C77.5329 607.16 75.9436 606.243 74.3803 606.629L56.2831 611.098C53.3469 611.823 51.3043 608.239 53.4243 606.082L66.2912 592.99C67.4383 591.822 67.4383 589.951 66.2912 588.784L53.4243 575.691C51.3043 573.534 53.3469 569.951 56.2831 570.676L74.3803 575.145C75.9436 575.531 77.5329 574.614 77.981 573.067L83.1185 555.333Z" stroke="#1C1C1C" stroke-width="1.5"/>
</svg>
